<?xml version="1.0" encoding="utf-8"?>
<!-- Generator: Adobe Illustrator 19.2.1, SVG Export Plug-In . SVG Version: 6.00 Build 0)  -->
<svg version="1.1" xmlns="http://www.w3.org/2000/svg" xmlns:xlink="http://www.w3.org/1999/xlink" x="0px" y="0px"
	 viewBox="0 0 72.5 73" style="enable-background:new 0 0 72.5 73;" xml:space="preserve">
<style type="text/css">
	.st0{fill:#223743;}
	.st1{fill:#E3696A;}
	.st2{fill:#8B959B;}
	.st3{fill:#FBFDFD;}
	.st4{fill:#0BB799;}
	.st5{fill-rule:evenodd;clip-rule:evenodd;fill:#8B959B;}
	.st6{fill-rule:evenodd;clip-rule:evenodd;fill:#E3696A;}
	.st7{filter:url(#Adobe_OpacityMaskFilter);}
	.st8{clip-path:url(#SVGID_2_);}
	.st9{enable-background:new    ;}
	.st10{clip-path:url(#SVGID_2_);fill:#FFFFFF;}
	.st11{clip-path:url(#SVGID_2_);mask:url(#SVGID_3_);}
	.st12{clip-path:url(#SVGID_5_);}
	.st13{clip-path:url(#SVGID_7_);fill:#8B959B;}
	.st14{clip-path:url(#SVGID_9_);}
	.st15{clip-path:url(#SVGID_15_);}
	.st16{clip-path:url(#SVGID_19_);}
	.st17{opacity:0.45;clip-path:url(#SVGID_25_);}
	.st18{clip-path:url(#SVGID_27_);}
	.st19{filter:url(#Adobe_OpacityMaskFilter_1_);}
	.st20{clip-path:url(#SVGID_31_);}
	.st21{clip-path:url(#SVGID_31_);fill:#FFFFFF;}
	.st22{clip-path:url(#SVGID_31_);mask:url(#SVGID_32_);}
	.st23{clip-path:url(#SVGID_34_);}
	.st24{clip-path:url(#SVGID_36_);fill:#E3696A;}
	.st25{clip-path:url(#SVGID_38_);}
	.st26{clip-path:url(#SVGID_44_);}
	.st27{clip-path:url(#SVGID_48_);}
	.st28{opacity:0.45;clip-path:url(#SVGID_54_);}
	.st29{clip-path:url(#SVGID_56_);}
	.st30{fill:none;stroke:#E3696A;stroke-miterlimit:10;}
</style>
<g id="Layer_1">
	<g>
		<defs>
			<path id="SVGID_1_" d="M27.5-104c0-4.6,3.7-8.4,8.4-8.4c4.6,0,8.4,3.7,8.4,8.4c0,4.6-3.7,8.4-8.4,8.4
				C31.2-95.6,27.5-99.4,27.5-104 M22.9-104c0,7.1,5.8,12.9,12.9,12.9c7.1,0,12.9-5.8,12.9-12.9s-5.8-12.9-12.9-12.9
				C28.7-116.9,22.9-111.1,22.9-104 M46.2-117.4c0,1.7,1.3,3,3,3c1.7,0,3-1.3,3-3c0-1.7-1.3-3-3-3C47.5-120.4,46.2-119,46.2-117.4
				 M25.7-83.6c-2.4-0.1-3.8-0.5-4.7-0.9c-1.2-0.5-2-1-2.9-1.9c-0.9-0.9-1.4-1.7-1.9-2.9c-0.3-0.9-0.8-2.2-0.9-4.7
				c-0.1-2.6-0.1-3.4-0.1-10.1c0-6.7,0-7.5,0.1-10.1c0.1-2.4,0.5-3.8,0.9-4.7c0.5-1.2,1-2,1.9-2.9c0.9-0.9,1.7-1.4,2.9-1.9
				c0.9-0.3,2.2-0.8,4.7-0.9c2.6-0.1,3.4-0.1,10.1-0.1c6.7,0,7.5,0,10.1,0.1c2.4,0.1,3.8,0.5,4.7,0.9c1.2,0.5,2,1,2.9,1.9
				c0.9,0.9,1.4,1.7,1.9,2.9c0.3,0.9,0.8,2.2,0.9,4.7c0.1,2.6,0.1,3.4,0.1,10.1c0,6.7,0,7.5-0.1,10.1c-0.1,2.4-0.5,3.8-0.9,4.7
				c-0.5,1.2-1,2-1.9,2.9c-0.9,0.9-1.7,1.4-2.9,1.9c-0.9,0.3-2.2,0.8-4.7,0.9c-2.6,0.1-3.4,0.1-10.1,0.1
				C29.1-83.4,28.3-83.5,25.7-83.6 M25.5-128.9c-2.7,0.1-4.5,0.5-6.1,1.2c-1.6,0.6-3,1.5-4.4,2.9c-1.4,1.4-2.3,2.8-2.9,4.4
				c-0.6,1.6-1,3.4-1.2,6.1c-0.1,2.7-0.2,3.5-0.2,10.3s0,7.7,0.2,10.3c0.1,2.7,0.5,4.5,1.2,6.1c0.6,1.6,1.5,3,2.9,4.4
				c1.4,1.4,2.8,2.3,4.4,2.9c1.6,0.6,3.4,1,6.1,1.2c2.7,0.1,3.5,0.2,10.3,0.2c6.8,0,7.7,0,10.3-0.2c2.7-0.1,4.5-0.5,6.1-1.2
				c1.6-0.6,3-1.5,4.4-2.9c1.4-1.4,2.3-2.8,2.9-4.4c0.6-1.6,1-3.4,1.2-6.1c0.1-2.7,0.2-3.5,0.2-10.3s0-7.7-0.2-10.3
				c-0.1-2.7-0.5-4.5-1.2-6.1c-0.6-1.6-1.5-3-2.9-4.4c-1.4-1.4-2.8-2.3-4.4-2.9c-1.6-0.6-3.4-1-6.1-1.2c-2.7-0.1-3.5-0.2-10.3-0.2
				C29-129.1,28.1-129,25.5-128.9"/>
		</defs>
		<use xlink:href="#SVGID_1_"  style="overflow:visible;fill:#8B959B;"/>
		<clipPath id="SVGID_2_">
			<use xlink:href="#SVGID_1_"  style="overflow:visible;"/>
		</clipPath>
		<defs>
			<filter id="Adobe_OpacityMaskFilter" filterUnits="userSpaceOnUse" x="-110.1" y="-249.9" width="291.9" height="291.7">
				<feColorMatrix  type="matrix" values="1 0 0 0 0  0 1 0 0 0  0 0 1 0 0  0 0 0 1 0"/>
			</filter>
		</defs>
		<mask maskUnits="userSpaceOnUse" x="-110.1" y="-249.9" width="291.9" height="291.7" id="SVGID_3_">
			<g class="st7">
				<rect x="-110.1" y="-249.9" class="st8" width="291.9" height="291.7"/>
			</g>
		</mask>
		<g class="st11">
			<g>
				<defs>
					<rect id="SVGID_4_" x="-110.1" y="-249.9" width="291.9" height="291.7"/>
				</defs>
				<use xlink:href="#SVGID_4_"  style="overflow:visible;fill:#8B959B;"/>
				<clipPath id="SVGID_5_">
					<use xlink:href="#SVGID_4_"  style="overflow:visible;"/>
				</clipPath>
				<g class="st12">
					<defs>
						<rect id="SVGID_6_" x="-110.1" y="-249.9" width="291.9" height="291.7"/>
					</defs>
					<use xlink:href="#SVGID_6_"  style="overflow:visible;fill:#8B959B;"/>
					<clipPath id="SVGID_7_">
						<use xlink:href="#SVGID_6_"  style="overflow:visible;"/>
					</clipPath>
					<rect x="-110.1" y="-249.9" class="st13" width="291.7" height="291.7"/>
				</g>
				<g class="st12">
					<defs>
						<rect id="SVGID_8_" x="-66" y="-202" width="247.9" height="218.2"/>
					</defs>
					<use xlink:href="#SVGID_8_"  style="overflow:visible;fill:#8B959B;"/>
					<clipPath id="SVGID_9_">
						<use xlink:href="#SVGID_8_"  style="overflow:visible;"/>
					</clipPath>
					<g class="st14">
						<defs>
							<rect id="SVGID_10_" x="-66" y="-202" width="247.9" height="218.2"/>
						</defs>
						<use xlink:href="#SVGID_10_"  style="overflow:visible;fill:#8B959B;"/>
						<clipPath id="SVGID_11_">
							<use xlink:href="#SVGID_10_"  style="overflow:visible;"/>
						</clipPath>
						<g style="clip-path:url(#SVGID_11_);">
							
								<image style="overflow:visible;" width="435" height="383" xlink:href="729A4C60BAC7123.png"  transform="matrix(0.5698 0 0 0.5698 -66.0446 -202.0072)">
							</image>
						</g>
					</g>
				</g>
				<g class="st12">
					<defs>
						<rect id="SVGID_12_" x="-91.1" y="-190" width="238.8" height="230.2"/>
					</defs>
					<use xlink:href="#SVGID_12_"  style="overflow:visible;fill:#8B959B;"/>
					<clipPath id="SVGID_13_">
						<use xlink:href="#SVGID_12_"  style="overflow:visible;"/>
					</clipPath>
					<g style="clip-path:url(#SVGID_13_);">
						
							<image style="overflow:visible;" width="419" height="404" xlink:href="729A4C60BAC7121.png"  transform="matrix(0.5698 0 0 0.5698 -91.1162 -190.0413)">
						</image>
					</g>
				</g>
				<g class="st12">
					<defs>
						<rect id="SVGID_14_" x="-62.1" y="-146.2" width="163" height="163"/>
					</defs>
					<use xlink:href="#SVGID_14_"  style="overflow:visible;fill:#8B959B;"/>
					<clipPath id="SVGID_15_">
						<use xlink:href="#SVGID_14_"  style="overflow:visible;"/>
					</clipPath>
					<g class="st15">
						<defs>
							<rect id="SVGID_16_" x="-62.1" y="-146.2" width="163" height="163"/>
						</defs>
						<use xlink:href="#SVGID_16_"  style="overflow:visible;fill:#8B959B;"/>
						<clipPath id="SVGID_17_">
							<use xlink:href="#SVGID_16_"  style="overflow:visible;"/>
						</clipPath>
						<g style="clip-path:url(#SVGID_17_);">
							
								<image style="overflow:visible;" width="286" height="286" xlink:href="729A4C60BAC7127.png"  transform="matrix(0.5698 0 0 0.5698 -62.0559 -146.1659)">
							</image>
						</g>
					</g>
				</g>
				<g class="st12">
					<defs>
						<rect id="SVGID_18_" x="-39.3" y="-119.4" width="131.6" height="131.6"/>
					</defs>
					<use xlink:href="#SVGID_18_"  style="overflow:visible;fill:#8B959B;"/>
					<clipPath id="SVGID_19_">
						<use xlink:href="#SVGID_18_"  style="overflow:visible;"/>
					</clipPath>
					<g class="st16">
						<defs>
							<rect id="SVGID_20_" x="-39.3" y="-119.4" width="131.6" height="131.6"/>
						</defs>
						<use xlink:href="#SVGID_20_"  style="overflow:visible;fill:#8B959B;"/>
						<clipPath id="SVGID_21_">
							<use xlink:href="#SVGID_20_"  style="overflow:visible;"/>
						</clipPath>
						<g style="clip-path:url(#SVGID_21_);">
							
								<image style="overflow:visible;" width="231" height="231" xlink:href="729A4C60BAC7120.png"  transform="matrix(0.5698 0 0 0.5698 -39.2635 -119.3849)">
							</image>
						</g>
					</g>
				</g>
				<g class="st12">
					<defs>
						<rect id="SVGID_22_" x="-47.8" y="-110.8" width="129.9" height="125.9"/>
					</defs>
					<use xlink:href="#SVGID_22_"  style="overflow:visible;fill:#8B959B;"/>
					<clipPath id="SVGID_23_">
						<use xlink:href="#SVGID_22_"  style="overflow:visible;"/>
					</clipPath>
					<g style="clip-path:url(#SVGID_23_);">
						
							<image style="overflow:visible;" width="228" height="221" xlink:href="729A4C60BAC712E.png"  transform="matrix(0.5698 0 0 0.5698 -47.8107 -110.8378)">
						</image>
					</g>
				</g>
				<g class="st12">
					<defs>
						<rect id="SVGID_24_" x="-110.1" y="-249.9" width="291.9" height="291.7"/>
					</defs>
					<use xlink:href="#SVGID_24_"  style="overflow:visible;fill:#8B959B;"/>
					<clipPath id="SVGID_25_">
						<use xlink:href="#SVGID_24_"  style="overflow:visible;"/>
					</clipPath>
				</g>
			</g>
		</g>
	</g>
	<g>
		<defs>
			<path id="SVGID_30_" d="M157.3-104c0-4.6,3.7-8.4,8.4-8.4c4.6,0,8.4,3.7,8.4,8.4c0,4.6-3.7,8.4-8.4,8.4
				C161-95.6,157.3-99.4,157.3-104 M152.8-104c0,7.1,5.8,12.9,12.9,12.9c7.1,0,12.9-5.8,12.9-12.9s-5.8-12.9-12.9-12.9
				C158.6-116.9,152.8-111.1,152.8-104 M176-117.4c0,1.7,1.3,3,3,3s3-1.3,3-3c0-1.7-1.3-3-3-3S176-119,176-117.4 M155.5-83.6
				c-2.4-0.1-3.8-0.5-4.7-0.9c-1.2-0.5-2-1-2.9-1.9c-0.9-0.9-1.4-1.7-1.9-2.9c-0.3-0.9-0.8-2.2-0.9-4.7c-0.1-2.6-0.1-3.4-0.1-10.1
				c0-6.7,0-7.5,0.1-10.1c0.1-2.4,0.5-3.8,0.9-4.7c0.5-1.2,1-2,1.9-2.9c0.9-0.9,1.7-1.4,2.9-1.9c0.9-0.3,2.2-0.8,4.7-0.9
				c2.6-0.1,3.4-0.1,10.1-0.1c6.7,0,7.5,0,10.1,0.1c2.4,0.1,3.8,0.5,4.7,0.9c1.2,0.5,2,1,2.9,1.9c0.9,0.9,1.4,1.7,1.9,2.9
				c0.3,0.9,0.8,2.2,0.9,4.7c0.1,2.6,0.1,3.4,0.1,10.1c0,6.7,0,7.5-0.1,10.1c-0.1,2.4-0.5,3.8-0.9,4.7c-0.5,1.2-1,2-1.9,2.9
				c-0.9,0.9-1.7,1.4-2.9,1.9c-0.9,0.3-2.2,0.8-4.7,0.9c-2.6,0.1-3.4,0.1-10.1,0.1C159-83.4,158.2-83.5,155.5-83.6 M155.3-128.9
				c-2.7,0.1-4.5,0.5-6.1,1.2c-1.6,0.6-3,1.5-4.4,2.9c-1.4,1.4-2.3,2.8-2.9,4.4c-0.6,1.6-1,3.4-1.2,6.1c-0.1,2.7-0.2,3.5-0.2,10.3
				s0,7.7,0.2,10.3c0.1,2.7,0.5,4.5,1.2,6.1c0.6,1.6,1.5,3,2.9,4.4c1.4,1.4,2.8,2.3,4.4,2.9c1.6,0.6,3.4,1,6.1,1.2
				c2.7,0.1,3.5,0.2,10.3,0.2c6.8,0,7.7,0,10.3-0.2c2.7-0.1,4.5-0.5,6.1-1.2c1.6-0.6,3-1.5,4.4-2.9c1.4-1.4,2.3-2.8,2.9-4.4
				c0.6-1.6,1-3.4,1.2-6.1c0.1-2.7,0.2-3.5,0.2-10.3s0-7.7-0.2-10.3c-0.1-2.7-0.5-4.5-1.2-6.1c-0.6-1.6-1.5-3-2.9-4.4
				c-1.4-1.4-2.8-2.3-4.4-2.9c-1.6-0.6-3.4-1-6.1-1.2c-2.7-0.1-3.5-0.2-10.3-0.2C158.9-129.1,158-129,155.3-128.9"/>
		</defs>
		<use xlink:href="#SVGID_30_"  style="overflow:visible;fill:#E3696A;"/>
		<clipPath id="SVGID_27_">
			<use xlink:href="#SVGID_30_"  style="overflow:visible;"/>
		</clipPath>
		<defs>
			<filter id="Adobe_OpacityMaskFilter_1_" filterUnits="userSpaceOnUse" x="19.8" y="-249.9" width="291.9" height="291.7">
				<feColorMatrix  type="matrix" values="1 0 0 0 0  0 1 0 0 0  0 0 1 0 0  0 0 0 1 0"/>
			</filter>
		</defs>
		<mask maskUnits="userSpaceOnUse" x="19.8" y="-249.9" width="291.9" height="291.7" id="SVGID_29_">
			<g class="st19">
				<rect x="19.8" y="-249.9" class="st18" width="291.9" height="291.7"/>
			</g>
		</mask>
		<g style="clip-path:url(#SVGID_27_);mask:url(#SVGID_29_);">
			<g>
				<defs>
					<rect id="SVGID_33_" x="19.8" y="-249.9" width="291.9" height="291.7"/>
				</defs>
				<use xlink:href="#SVGID_33_"  style="overflow:visible;fill:#E3696A;"/>
				<clipPath id="SVGID_31_">
					<use xlink:href="#SVGID_33_"  style="overflow:visible;"/>
				</clipPath>
				<g class="st20">
					<defs>
						<rect id="SVGID_35_" x="19.8" y="-249.9" width="291.9" height="291.7"/>
					</defs>
					<use xlink:href="#SVGID_35_"  style="overflow:visible;fill:#E3696A;"/>
					<clipPath id="SVGID_32_">
						<use xlink:href="#SVGID_35_"  style="overflow:visible;"/>
					</clipPath>
					<rect x="19.8" y="-249.9" style="clip-path:url(#SVGID_32_);fill:#E3696A;" width="291.7" height="291.7"/>
				</g>
				<g class="st20">
					<defs>
						<rect id="SVGID_37_" x="63.8" y="-202" width="247.9" height="218.2"/>
					</defs>
					<use xlink:href="#SVGID_37_"  style="overflow:visible;fill:#E3696A;"/>
					<clipPath id="SVGID_34_">
						<use xlink:href="#SVGID_37_"  style="overflow:visible;"/>
					</clipPath>
					<g class="st23">
						<defs>
							<rect id="SVGID_39_" x="63.8" y="-202" width="247.9" height="218.2"/>
						</defs>
						<use xlink:href="#SVGID_39_"  style="overflow:visible;fill:#E3696A;"/>
						<clipPath id="SVGID_36_">
							<use xlink:href="#SVGID_39_"  style="overflow:visible;"/>
						</clipPath>
						<g style="clip-path:url(#SVGID_36_);">
							
								<image style="overflow:visible;" width="435" height="383" xlink:href="729A4C60BAC712F.png"  transform="matrix(0.5698 0 0 0.5698 63.8115 -202.0072)">
							</image>
						</g>
					</g>
				</g>
				<g class="st20">
					<defs>
						<rect id="SVGID_41_" x="38.7" y="-190" width="238.8" height="230.2"/>
					</defs>
					<use xlink:href="#SVGID_41_"  style="overflow:visible;fill:#E3696A;"/>
					<clipPath id="SVGID_38_">
						<use xlink:href="#SVGID_41_"  style="overflow:visible;"/>
					</clipPath>
					<g class="st25">
						
							<image style="overflow:visible;" width="419" height="404" xlink:href="729A4C60BAC7122.png"  transform="matrix(0.5698 0 0 0.5698 38.7399 -190.0413)">
						</image>
					</g>
				</g>
				<g class="st20">
					<defs>
						<rect id="SVGID_43_" x="67.8" y="-146.2" width="163" height="163"/>
					</defs>
					<use xlink:href="#SVGID_43_"  style="overflow:visible;fill:#E3696A;"/>
					<clipPath id="SVGID_40_">
						<use xlink:href="#SVGID_43_"  style="overflow:visible;"/>
					</clipPath>
					<g style="clip-path:url(#SVGID_40_);">
						<defs>
							<rect id="SVGID_45_" x="67.8" y="-146.2" width="163" height="163"/>
						</defs>
						<use xlink:href="#SVGID_45_"  style="overflow:visible;fill:#E3696A;"/>
						<clipPath id="SVGID_42_">
							<use xlink:href="#SVGID_45_"  style="overflow:visible;"/>
						</clipPath>
						<g style="clip-path:url(#SVGID_42_);">
							
								<image style="overflow:visible;" width="286" height="286" xlink:href="729A4C60BAC7125.png"  transform="matrix(0.5698 0 0 0.5698 67.8002 -146.1659)">
							</image>
						</g>
					</g>
				</g>
				<g class="st20">
					<defs>
						<rect id="SVGID_53_" x="19.8" y="-249.9" width="291.9" height="291.7"/>
					</defs>
					<use xlink:href="#SVGID_53_"  style="overflow:visible;fill:#E3696A;"/>
					<clipPath id="SVGID_44_">
						<use xlink:href="#SVGID_53_"  style="overflow:visible;"/>
					</clipPath>
				</g>
			</g>
		</g>
	</g>
	<g>
		<path class="st2" d="M29.6,34.9c0,0,5.3-0.4,5.3-6.6c0-6.2-4.3-9.2-9.8-9.2h-10h-0.3H7.2v34.5h7.6h0.3h10c0,0,11,0.3,11-10.2
			C36.1,43.4,36.6,34.9,29.6,34.9z M15.1,25.3h8.8h1.3c0,0,2.4,0,2.4,3.6c0,3.6-1.4,4.1-3.1,4.1h-9.4V25.3z M24.6,47.5
			c-0.3,0-0.5,0-0.6,0h-8.9v-9.2h10c0,0,3.6,0,3.6,4.7C28.8,47.1,26,47.5,24.6,47.5z"/>
		<path class="st2" d="M53.2,26.6C40,26.6,40,39.9,40,39.9s-0.9,14.4,13.3,14.4c0,0,11.8,0.7,11.8-9.2H59c0,0,0.2,4.1-5.5,3.7
			c-2.4-0.2-6.1-0.9-6.1-7.3h17.9C65.2,41.6,67.2,26.6,53.2,26.6z M47.3,37c0,0,0.7-5.3,6.1-5.3c5.3,0,5.3,5.3,5.3,5.3H47.3z"/>
		<rect x="45.8" y="18.6" class="st2" width="14.2" height="4.3"/>
	</g>
</g>
<g id="Layer_2">
</g>
</svg>
