<?xml version="1.0" encoding="utf-8"?>
<!-- Generator: Adobe Illustrator 19.2.1, SVG Export Plug-In . SVG Version: 6.00 Build 0)  -->
<svg version="1.1" xmlns="http://www.w3.org/2000/svg" xmlns:xlink="http://www.w3.org/1999/xlink" x="0px" y="0px"
	 viewBox="0 0 72.5 73" style="enable-background:new 0 0 72.5 73;" xml:space="preserve">
<style type="text/css">
	.st0{fill:#223743;}
	.st1{fill:#E3696A;}
	.st2{fill:#8B959B;}
	.st3{fill:#FBFDFD;}
	.st4{fill:#0BB799;}
	.st5{fill-rule:evenodd;clip-rule:evenodd;fill:#8B959B;}
	.st6{fill-rule:evenodd;clip-rule:evenodd;fill:#E3696A;}
	.st7{filter:url(#Adobe_OpacityMaskFilter);}
	.st8{clip-path:url(#SVGID_2_);}
	.st9{enable-background:new    ;}
	.st10{clip-path:url(#SVGID_2_);fill:#FFFFFF;}
	.st11{clip-path:url(#SVGID_2_);mask:url(#SVGID_3_);}
	.st12{clip-path:url(#SVGID_5_);}
	.st13{clip-path:url(#SVGID_7_);fill:#8B959B;}
	.st14{clip-path:url(#SVGID_9_);}
	.st15{clip-path:url(#SVGID_15_);}
	.st16{clip-path:url(#SVGID_19_);}
	.st17{opacity:0.45;clip-path:url(#SVGID_25_);}
	.st18{clip-path:url(#SVGID_27_);}
	.st19{filter:url(#Adobe_OpacityMaskFilter_1_);}
	.st20{clip-path:url(#SVGID_31_);}
	.st21{clip-path:url(#SVGID_31_);fill:#FFFFFF;}
	.st22{clip-path:url(#SVGID_31_);mask:url(#SVGID_32_);}
	.st23{clip-path:url(#SVGID_34_);}
	.st24{clip-path:url(#SVGID_36_);fill:#E3696A;}
	.st25{clip-path:url(#SVGID_38_);}
	.st26{clip-path:url(#SVGID_44_);}
	.st27{clip-path:url(#SVGID_48_);}
	.st28{opacity:0.45;clip-path:url(#SVGID_54_);}
	.st29{clip-path:url(#SVGID_56_);}
	.st30{fill:none;stroke:#E3696A;stroke-miterlimit:10;}
</style>
<g id="Layer_1">
	<path class="st5" d="M51.2,11.7h-8.3c0,0-9.4-0.6-11.8,8.8c0,0-0.9,2.5-0.7,8.6h-9.1v7.2h9.8v27.1h9.8V36.3h9.8V29h-9.8
		c0,0,0-1.5,0-4.3c0-2.8,1.9-5.5,6.2-5.5h4.1V11.7z"/>
	<g>
		<defs>
			<path id="SVGID_1_" d="M27.5,193c0-4.6,3.7-8.4,8.4-8.4c4.6,0,8.4,3.7,8.4,8.4c0,4.6-3.7,8.4-8.4,8.4
				C31.2,201.4,27.5,197.6,27.5,193 M22.9,193c0,7.1,5.8,12.9,12.9,12.9c7.1,0,12.9-5.8,12.9-12.9c0-7.1-5.8-12.9-12.9-12.9
				C28.7,180.1,22.9,185.9,22.9,193 M46.2,179.6c0,1.7,1.3,3,3,3c1.7,0,3-1.3,3-3c0-1.7-1.3-3-3-3C47.5,176.6,46.2,178,46.2,179.6
				 M25.7,213.4c-2.4-0.1-3.8-0.5-4.7-0.9c-1.2-0.5-2-1-2.9-1.9c-0.9-0.9-1.4-1.7-1.9-2.9c-0.3-0.9-0.8-2.2-0.9-4.7
				c-0.1-2.6-0.1-3.4-0.1-10.1c0-6.7,0-7.5,0.1-10.1c0.1-2.4,0.5-3.8,0.9-4.7c0.5-1.2,1-2,1.9-2.9c0.9-0.9,1.7-1.4,2.9-1.9
				c0.9-0.3,2.2-0.8,4.7-0.9c2.6-0.1,3.4-0.1,10.1-0.1c6.7,0,7.5,0,10.1,0.1c2.4,0.1,3.8,0.5,4.7,0.9c1.2,0.5,2,1,2.9,1.9
				c0.9,0.9,1.4,1.7,1.9,2.9c0.3,0.9,0.8,2.2,0.9,4.7c0.1,2.6,0.1,3.4,0.1,10.1c0,6.7,0,7.5-0.1,10.1c-0.1,2.4-0.5,3.8-0.9,4.7
				c-0.5,1.2-1,2-1.9,2.9c-0.9,0.9-1.7,1.4-2.9,1.9c-0.9,0.3-2.2,0.8-4.7,0.9c-2.6,0.1-3.4,0.1-10.1,0.1
				C29.1,213.6,28.3,213.5,25.7,213.4 M25.5,168.1c-2.7,0.1-4.5,0.5-6.1,1.2c-1.6,0.6-3,1.5-4.4,2.9c-1.4,1.4-2.3,2.8-2.9,4.4
				c-0.6,1.6-1,3.4-1.2,6.1c-0.1,2.7-0.2,3.5-0.2,10.3s0,7.7,0.2,10.3c0.1,2.7,0.5,4.5,1.2,6.1c0.6,1.6,1.5,3,2.9,4.4
				c1.4,1.4,2.8,2.3,4.4,2.9c1.6,0.6,3.4,1,6.1,1.2c2.7,0.1,3.5,0.2,10.3,0.2c6.8,0,7.7,0,10.3-0.2c2.7-0.1,4.5-0.5,6.1-1.2
				c1.6-0.6,3-1.5,4.4-2.9c1.4-1.4,2.3-2.8,2.9-4.4c0.6-1.6,1-3.4,1.2-6.1c0.1-2.7,0.2-3.5,0.2-10.3s0-7.7-0.2-10.3
				c-0.1-2.7-0.5-4.5-1.2-6.1c-0.6-1.6-1.5-3-2.9-4.4c-1.4-1.4-2.8-2.3-4.4-2.9c-1.6-0.6-3.4-1-6.1-1.2c-2.7-0.1-3.5-0.2-10.3-0.2
				C29,167.9,28.1,168,25.5,168.1"/>
		</defs>
		<use xlink:href="#SVGID_1_"  style="overflow:visible;fill:#8B959B;"/>
		<clipPath id="SVGID_2_">
			<use xlink:href="#SVGID_1_"  style="overflow:visible;"/>
		</clipPath>
		<defs>
			<filter id="Adobe_OpacityMaskFilter" filterUnits="userSpaceOnUse" x="-110.1" y="47.1" width="291.9" height="291.7">
				<feColorMatrix  type="matrix" values="1 0 0 0 0  0 1 0 0 0  0 0 1 0 0  0 0 0 1 0"/>
			</filter>
		</defs>
		<mask maskUnits="userSpaceOnUse" x="-110.1" y="47.1" width="291.9" height="291.7" id="SVGID_3_">
			<g class="st7">
				<rect x="-110.1" y="47.1" class="st8" width="291.9" height="291.7"/>
			</g>
		</mask>
		<g class="st11">
			<g>
				<defs>
					<rect id="SVGID_4_" x="-110.1" y="47.1" width="291.9" height="291.7"/>
				</defs>
				<use xlink:href="#SVGID_4_"  style="overflow:visible;fill:#8B959B;"/>
				<clipPath id="SVGID_5_">
					<use xlink:href="#SVGID_4_"  style="overflow:visible;"/>
				</clipPath>
				<g class="st12">
					<defs>
						<rect id="SVGID_6_" x="-110.1" y="47.1" width="291.9" height="291.7"/>
					</defs>
					<use xlink:href="#SVGID_6_"  style="overflow:visible;fill:#8B959B;"/>
					<clipPath id="SVGID_7_">
						<use xlink:href="#SVGID_6_"  style="overflow:visible;"/>
					</clipPath>
					<rect x="-110.1" y="47.1" class="st13" width="291.7" height="291.7"/>
				</g>
				<g class="st12">
					<defs>
						<rect id="SVGID_24_" x="-110.1" y="47.1" width="291.9" height="291.7"/>
					</defs>
					<use xlink:href="#SVGID_24_"  style="overflow:visible;fill:#8B959B;"/>
					<clipPath id="SVGID_9_">
						<use xlink:href="#SVGID_24_"  style="overflow:visible;"/>
					</clipPath>
				</g>
			</g>
		</g>
	</g>
	<g>
		<defs>
			<path id="SVGID_30_" d="M157.3,193c0-4.6,3.7-8.4,8.4-8.4c4.6,0,8.4,3.7,8.4,8.4c0,4.6-3.7,8.4-8.4,8.4
				C161,201.4,157.3,197.6,157.3,193 M152.8,193c0,7.1,5.8,12.9,12.9,12.9c7.1,0,12.9-5.8,12.9-12.9c0-7.1-5.8-12.9-12.9-12.9
				C158.6,180.1,152.8,185.9,152.8,193 M176,179.6c0,1.7,1.3,3,3,3s3-1.3,3-3c0-1.7-1.3-3-3-3S176,178,176,179.6 M155.5,213.4
				c-2.4-0.1-3.8-0.5-4.7-0.9c-1.2-0.5-2-1-2.9-1.9c-0.9-0.9-1.4-1.7-1.9-2.9c-0.3-0.9-0.8-2.2-0.9-4.7c-0.1-2.6-0.1-3.4-0.1-10.1
				c0-6.7,0-7.5,0.1-10.1c0.1-2.4,0.5-3.8,0.9-4.7c0.5-1.2,1-2,1.9-2.9c0.9-0.9,1.7-1.4,2.9-1.9c0.9-0.3,2.2-0.8,4.7-0.9
				c2.6-0.1,3.4-0.1,10.1-0.1c6.7,0,7.5,0,10.1,0.1c2.4,0.1,3.8,0.5,4.7,0.9c1.2,0.5,2,1,2.9,1.9c0.9,0.9,1.4,1.7,1.9,2.9
				c0.3,0.9,0.8,2.2,0.9,4.7c0.1,2.6,0.1,3.4,0.1,10.1c0,6.7,0,7.5-0.1,10.1c-0.1,2.4-0.5,3.8-0.9,4.7c-0.5,1.2-1,2-1.9,2.9
				c-0.9,0.9-1.7,1.4-2.9,1.9c-0.9,0.3-2.2,0.8-4.7,0.9c-2.6,0.1-3.4,0.1-10.1,0.1C159,213.6,158.2,213.5,155.5,213.4 M155.3,168.1
				c-2.7,0.1-4.5,0.5-6.1,1.2c-1.6,0.6-3,1.5-4.4,2.9c-1.4,1.4-2.3,2.8-2.9,4.4c-0.6,1.6-1,3.4-1.2,6.1c-0.1,2.7-0.2,3.5-0.2,10.3
				s0,7.7,0.2,10.3c0.1,2.7,0.5,4.5,1.2,6.1c0.6,1.6,1.5,3,2.9,4.4c1.4,1.4,2.8,2.3,4.4,2.9c1.6,0.6,3.4,1,6.1,1.2
				c2.7,0.1,3.5,0.2,10.3,0.2c6.8,0,7.7,0,10.3-0.2c2.7-0.1,4.5-0.5,6.1-1.2c1.6-0.6,3-1.5,4.4-2.9c1.4-1.4,2.3-2.8,2.9-4.4
				c0.6-1.6,1-3.4,1.2-6.1c0.1-2.7,0.2-3.5,0.2-10.3s0-7.7-0.2-10.3c-0.1-2.7-0.5-4.5-1.2-6.1c-0.6-1.6-1.5-3-2.9-4.4
				c-1.4-1.4-2.8-2.3-4.4-2.9c-1.6-0.6-3.4-1-6.1-1.2c-2.7-0.1-3.5-0.2-10.3-0.2C158.9,167.9,158,168,155.3,168.1"/>
		</defs>
		<use xlink:href="#SVGID_30_"  style="overflow:visible;fill:#E3696A;"/>
		<clipPath id="SVGID_11_">
			<use xlink:href="#SVGID_30_"  style="overflow:visible;"/>
		</clipPath>
		<defs>
			<filter id="Adobe_OpacityMaskFilter_1_" filterUnits="userSpaceOnUse" x="19.8" y="47.1" width="291.9" height="291.7">
				<feColorMatrix  type="matrix" values="1 0 0 0 0  0 1 0 0 0  0 0 1 0 0  0 0 0 1 0"/>
			</filter>
		</defs>
		<mask maskUnits="userSpaceOnUse" x="19.8" y="47.1" width="291.9" height="291.7" id="SVGID_13_">
			<g class="st19">
				<rect x="19.8" y="47.1" style="clip-path:url(#SVGID_11_);" width="291.9" height="291.7"/>
			</g>
		</mask>
		<g style="clip-path:url(#SVGID_11_);mask:url(#SVGID_13_);">
			<g>
				<defs>
					<rect id="SVGID_33_" x="19.8" y="47.1" width="291.9" height="291.7"/>
				</defs>
				<use xlink:href="#SVGID_33_"  style="overflow:visible;fill:#E3696A;"/>
				<clipPath id="SVGID_15_">
					<use xlink:href="#SVGID_33_"  style="overflow:visible;"/>
				</clipPath>
				<g class="st15">
					<defs>
						<rect id="SVGID_35_" x="19.8" y="47.1" width="291.9" height="291.7"/>
					</defs>
					<use xlink:href="#SVGID_35_"  style="overflow:visible;fill:#E3696A;"/>
					<clipPath id="SVGID_17_">
						<use xlink:href="#SVGID_35_"  style="overflow:visible;"/>
					</clipPath>
					<rect x="19.8" y="47.1" style="clip-path:url(#SVGID_17_);fill:#E3696A;" width="291.7" height="291.7"/>
				</g>
				<g class="st15">
					<defs>
						<rect id="SVGID_53_" x="19.8" y="47.1" width="291.9" height="291.7"/>
					</defs>
					<use xlink:href="#SVGID_53_"  style="overflow:visible;fill:#E3696A;"/>
					<clipPath id="SVGID_19_">
						<use xlink:href="#SVGID_53_"  style="overflow:visible;"/>
					</clipPath>
				</g>
			</g>
		</g>
	</g>
</g>
<g id="Layer_2">
</g>
</svg>
