<?xml version="1.0" encoding="utf-8"?>
<!-- Generator: Adobe Illustrator 19.2.1, SVG Export Plug-In . SVG Version: 6.00 Build 0)  -->
<svg version="1.1" xmlns="http://www.w3.org/2000/svg" xmlns:xlink="http://www.w3.org/1999/xlink" x="0px" y="0px"
	 viewBox="0 0 72.5 73" style="enable-background:new 0 0 72.5 73;" xml:space="preserve">
<style type="text/css">
	.st0{fill:#223743;}
	.st1{fill:#E3696A;}
	.st2{fill:#8B959B;}
	.st3{fill:#FBFDFD;}
	.st4{fill:#0BB799;}
	.st5{fill-rule:evenodd;clip-rule:evenodd;fill:#8B959B;}
	.st6{fill-rule:evenodd;clip-rule:evenodd;fill:#E3696A;}
	.st7{filter:url(#Adobe_OpacityMaskFilter);}
	.st8{clip-path:url(#SVGID_2_);}
	.st9{enable-background:new    ;}
	.st10{clip-path:url(#SVGID_2_);fill:#FFFFFF;}
	.st11{clip-path:url(#SVGID_2_);mask:url(#SVGID_3_);}
	.st12{clip-path:url(#SVGID_5_);}
	.st13{clip-path:url(#SVGID_7_);fill:#8B959B;}
	.st14{clip-path:url(#SVGID_9_);}
	.st15{clip-path:url(#SVGID_15_);}
	.st16{clip-path:url(#SVGID_19_);}
	.st17{opacity:0.45;clip-path:url(#SVGID_25_);}
	.st18{clip-path:url(#SVGID_27_);}
	.st19{filter:url(#Adobe_OpacityMaskFilter_1_);}
	.st20{clip-path:url(#SVGID_31_);}
	.st21{clip-path:url(#SVGID_31_);fill:#FFFFFF;}
	.st22{clip-path:url(#SVGID_31_);mask:url(#SVGID_32_);}
	.st23{clip-path:url(#SVGID_34_);}
	.st24{clip-path:url(#SVGID_36_);fill:#E3696A;}
	.st25{clip-path:url(#SVGID_38_);}
	.st26{clip-path:url(#SVGID_44_);}
	.st27{clip-path:url(#SVGID_48_);}
	.st28{opacity:0.45;clip-path:url(#SVGID_54_);}
	.st29{clip-path:url(#SVGID_56_);}
	.st30{fill:none;stroke:#E3696A;stroke-miterlimit:10;}
</style>
<g id="Layer_1">
	<g>
		<defs>
			<path id="SVGID_1_" d="M27.5,36.5c0-4.6,3.7-8.4,8.4-8.4c4.6,0,8.4,3.7,8.4,8.4c0,4.6-3.7,8.4-8.4,8.4
				C31.2,44.9,27.5,41.1,27.5,36.5 M22.9,36.5c0,7.1,5.8,12.9,12.9,12.9c7.1,0,12.9-5.8,12.9-12.9s-5.8-12.9-12.9-12.9
				C28.7,23.6,22.9,29.4,22.9,36.5 M46.2,23.1c0,1.7,1.3,3,3,3c1.7,0,3-1.3,3-3c0-1.7-1.3-3-3-3C47.5,20.1,46.2,21.5,46.2,23.1
				 M25.7,56.9c-2.4-0.1-3.8-0.5-4.7-0.9c-1.2-0.5-2-1-2.9-1.9c-0.9-0.9-1.4-1.7-1.9-2.9c-0.3-0.9-0.8-2.2-0.9-4.7
				c-0.1-2.6-0.1-3.4-0.1-10.1c0-6.7,0-7.5,0.1-10.1c0.1-2.4,0.5-3.8,0.9-4.7c0.5-1.2,1-2,1.9-2.9C19,18,19.9,17.4,21,17
				c0.9-0.3,2.2-0.8,4.7-0.9c2.6-0.1,3.4-0.1,10.1-0.1c6.7,0,7.5,0,10.1,0.1c2.4,0.1,3.8,0.5,4.7,0.9c1.2,0.5,2,1,2.9,1.9
				c0.9,0.9,1.4,1.7,1.9,2.9c0.3,0.9,0.8,2.2,0.9,4.7c0.1,2.6,0.1,3.4,0.1,10.1c0,6.7,0,7.5-0.1,10.1c-0.1,2.4-0.5,3.8-0.9,4.7
				c-0.5,1.2-1,2-1.9,2.9c-0.9,0.9-1.7,1.4-2.9,1.9c-0.9,0.3-2.2,0.8-4.7,0.9c-2.6,0.1-3.4,0.1-10.1,0.1
				C29.1,57.1,28.3,57,25.7,56.9 M25.5,11.6c-2.7,0.1-4.5,0.5-6.1,1.2c-1.6,0.6-3,1.5-4.4,2.9c-1.4,1.4-2.3,2.8-2.9,4.4
				c-0.6,1.6-1,3.4-1.2,6.1c-0.1,2.7-0.2,3.5-0.2,10.3s0,7.7,0.2,10.3c0.1,2.7,0.5,4.5,1.2,6.1c0.6,1.6,1.5,3,2.9,4.4
				c1.4,1.4,2.8,2.3,4.4,2.9c1.6,0.6,3.4,1,6.1,1.2c2.7,0.1,3.5,0.2,10.3,0.2c6.8,0,7.7,0,10.3-0.2c2.7-0.1,4.5-0.5,6.1-1.2
				c1.6-0.6,3-1.5,4.4-2.9c1.4-1.4,2.3-2.8,2.9-4.4c0.6-1.6,1-3.4,1.2-6.1c0.1-2.7,0.2-3.5,0.2-10.3s0-7.7-0.2-10.3
				c-0.1-2.7-0.5-4.5-1.2-6.1c-0.6-1.6-1.5-3-2.9-4.4c-1.4-1.4-2.8-2.3-4.4-2.9c-1.6-0.6-3.4-1-6.1-1.2c-2.7-0.1-3.5-0.2-10.3-0.2
				C29,11.4,28.1,11.5,25.5,11.6"/>
		</defs>
		<use xlink:href="#SVGID_1_"  style="overflow:visible;fill:#8B959B;"/>
		<clipPath id="SVGID_2_">
			<use xlink:href="#SVGID_1_"  style="overflow:visible;"/>
		</clipPath>
		<defs>
			<filter id="Adobe_OpacityMaskFilter" filterUnits="userSpaceOnUse" x="-110.1" y="-109.4" width="291.9" height="291.7">
				<feColorMatrix  type="matrix" values="1 0 0 0 0  0 1 0 0 0  0 0 1 0 0  0 0 0 1 0"/>
			</filter>
		</defs>
		<mask maskUnits="userSpaceOnUse" x="-110.1" y="-109.4" width="291.9" height="291.7" id="SVGID_3_">
			<g class="st7">
				<rect x="-110.1" y="-109.4" class="st8" width="291.9" height="291.7"/>
				<g class="st9">
					<rect x="1.6" y="2.3" class="st10" width="68.4" height="68.4"/>
				</g>
			</g>
		</mask>
		<g class="st11">
			<g>
				<defs>
					<rect id="SVGID_4_" x="-110.1" y="-109.4" width="291.9" height="291.7"/>
				</defs>
				<use xlink:href="#SVGID_4_"  style="overflow:visible;fill:#8B959B;"/>
				<clipPath id="SVGID_5_">
					<use xlink:href="#SVGID_4_"  style="overflow:visible;"/>
				</clipPath>
				<g class="st12">
					<defs>
						<rect id="SVGID_6_" x="-110.1" y="-109.4" width="291.9" height="291.7"/>
					</defs>
					<use xlink:href="#SVGID_6_"  style="overflow:visible;fill:#8B959B;"/>
					<clipPath id="SVGID_7_">
						<use xlink:href="#SVGID_6_"  style="overflow:visible;"/>
					</clipPath>
					<rect x="-110.1" y="-109.4" class="st13" width="291.7" height="291.7"/>
				</g>
				<g class="st12">
					<defs>
						<rect id="SVGID_8_" x="-66" y="-61.5" width="247.9" height="218.2"/>
					</defs>
					<use xlink:href="#SVGID_8_"  style="overflow:visible;fill:#8B959B;"/>
					<clipPath id="SVGID_9_">
						<use xlink:href="#SVGID_8_"  style="overflow:visible;"/>
					</clipPath>
					<g class="st14">
						<defs>
							<rect id="SVGID_10_" x="-66" y="-61.5" width="247.9" height="218.2"/>
						</defs>
						<use xlink:href="#SVGID_10_"  style="overflow:visible;fill:#8B959B;"/>
						<clipPath id="SVGID_11_">
							<use xlink:href="#SVGID_10_"  style="overflow:visible;"/>
						</clipPath>
						<g transform="matrix(1 0 0 1 0 3.814697e-06)" style="clip-path:url(#SVGID_11_);">
							
								<image style="overflow:visible;" width="435" height="383" xlink:href="E233863CDDFA69F1.png"  transform="matrix(0.5698 0 0 0.5698 -66.0446 -61.5073)">
							</image>
						</g>
					</g>
				</g>
				<g class="st12">
					<defs>
						<rect id="SVGID_12_" x="-91.1" y="-49.5" width="238.8" height="230.2"/>
					</defs>
					<use xlink:href="#SVGID_12_"  style="overflow:visible;fill:#8B959B;"/>
					<clipPath id="SVGID_13_">
						<use xlink:href="#SVGID_12_"  style="overflow:visible;"/>
					</clipPath>
					<g transform="matrix(1 0 0 1 0 3.814697e-06)" style="clip-path:url(#SVGID_13_);">
						
							<image style="overflow:visible;" width="419" height="404" xlink:href="E233863CDDFA69F3.png"  transform="matrix(0.5698 0 0 0.5698 -91.1162 -49.5413)">
						</image>
					</g>
				</g>
				<g class="st12">
					<defs>
						<rect id="SVGID_14_" x="-62.1" y="-5.7" width="163" height="163"/>
					</defs>
					<use xlink:href="#SVGID_14_"  style="overflow:visible;fill:#8B959B;"/>
					<clipPath id="SVGID_15_">
						<use xlink:href="#SVGID_14_"  style="overflow:visible;"/>
					</clipPath>
					<g class="st15">
						<defs>
							<rect id="SVGID_16_" x="-62.1" y="-5.7" width="163" height="163"/>
						</defs>
						<use xlink:href="#SVGID_16_"  style="overflow:visible;fill:#8B959B;"/>
						<clipPath id="SVGID_17_">
							<use xlink:href="#SVGID_16_"  style="overflow:visible;"/>
						</clipPath>
						<g style="clip-path:url(#SVGID_17_);">
							
								<image style="overflow:visible;" width="286" height="286" xlink:href="E233863CDDFA69F6.png"  transform="matrix(0.5698 0 0 0.5698 -62.0559 -5.6659)">
							</image>
						</g>
					</g>
				</g>
				<g class="st12">
					<defs>
						<rect id="SVGID_18_" x="-39.3" y="21.1" width="131.6" height="131.6"/>
					</defs>
					<use xlink:href="#SVGID_18_"  style="overflow:visible;fill:#8B959B;"/>
					<clipPath id="SVGID_19_">
						<use xlink:href="#SVGID_18_"  style="overflow:visible;"/>
					</clipPath>
					<g class="st16">
						<defs>
							<rect id="SVGID_20_" x="-39.3" y="21.1" width="131.6" height="131.6"/>
						</defs>
						<use xlink:href="#SVGID_20_"  style="overflow:visible;fill:#8B959B;"/>
						<clipPath id="SVGID_21_">
							<use xlink:href="#SVGID_20_"  style="overflow:visible;"/>
						</clipPath>
						<g style="clip-path:url(#SVGID_21_);">
							
								<image style="overflow:visible;" width="231" height="231" xlink:href="E233863CDDFA69F7.png"  transform="matrix(0.5698 0 0 0.5698 -39.2635 21.1151)">
							</image>
						</g>
					</g>
				</g>
				<g class="st12">
					<defs>
						<rect id="SVGID_22_" x="-47.8" y="29.7" width="129.9" height="125.9"/>
					</defs>
					<use xlink:href="#SVGID_22_"  style="overflow:visible;fill:#8B959B;"/>
					<clipPath id="SVGID_23_">
						<use xlink:href="#SVGID_22_"  style="overflow:visible;"/>
					</clipPath>
					<g style="clip-path:url(#SVGID_23_);">
						
							<image style="overflow:visible;" width="228" height="221" xlink:href="E233863CDDFA69F2.png"  transform="matrix(0.5698 0 0 0.5698 -47.8107 29.6622)">
						</image>
					</g>
				</g>
				<g class="st12">
					<defs>
						<rect id="SVGID_24_" x="-110.1" y="-109.4" width="291.9" height="291.7"/>
					</defs>
					<use xlink:href="#SVGID_24_"  style="overflow:visible;fill:#8B959B;"/>
					<clipPath id="SVGID_25_">
						<use xlink:href="#SVGID_24_"  style="overflow:visible;"/>
					</clipPath>
					<g class="st17">
						<g>
							<defs>
								<rect id="SVGID_26_" x="-105.9" y="-76.3" width="232.5" height="119.7"/>
							</defs>
							<use xlink:href="#SVGID_26_"  style="overflow:visible;fill:#8B959B;"/>
							<clipPath id="SVGID_27_">
								<use xlink:href="#SVGID_26_"  style="overflow:visible;"/>
							</clipPath>
							<g class="st18">
								<defs>
									<rect id="SVGID_28_" x="-105.9" y="-76.3" width="232.5" height="119.7"/>
								</defs>
								<use xlink:href="#SVGID_28_"  style="overflow:visible;fill:#8B959B;"/>
								<clipPath id="SVGID_29_">
									<use xlink:href="#SVGID_28_"  style="overflow:visible;"/>
								</clipPath>
								<g transform="matrix(1 0 0 1 0 0)" style="clip-path:url(#SVGID_29_);">
									
										<image style="overflow:visible;" width="408" height="210" xlink:href="E233863CDDFA69FD.png"  transform="matrix(0.5698 0 0 0.5698 -105.9312 -76.3223)">
									</image>
								</g>
							</g>
						</g>
					</g>
				</g>
			</g>
		</g>
	</g>
	<g>
		<defs>
			<path id="SVGID_30_" d="M157.3,36.5c0-4.6,3.7-8.4,8.4-8.4c4.6,0,8.4,3.7,8.4,8.4c0,4.6-3.7,8.4-8.4,8.4
				C161,44.9,157.3,41.1,157.3,36.5 M152.8,36.5c0,7.1,5.8,12.9,12.9,12.9c7.1,0,12.9-5.8,12.9-12.9s-5.8-12.9-12.9-12.9
				C158.6,23.6,152.8,29.4,152.8,36.5 M176,23.1c0,1.7,1.3,3,3,3s3-1.3,3-3c0-1.7-1.3-3-3-3S176,21.5,176,23.1 M155.5,56.9
				c-2.4-0.1-3.8-0.5-4.7-0.9c-1.2-0.5-2-1-2.9-1.9c-0.9-0.9-1.4-1.7-1.9-2.9c-0.3-0.9-0.8-2.2-0.9-4.7c-0.1-2.6-0.1-3.4-0.1-10.1
				c0-6.7,0-7.5,0.1-10.1c0.1-2.4,0.5-3.8,0.9-4.7c0.5-1.2,1-2,1.9-2.9c0.9-0.9,1.7-1.4,2.9-1.9c0.9-0.3,2.2-0.8,4.7-0.9
				c2.6-0.1,3.4-0.1,10.1-0.1c6.7,0,7.5,0,10.1,0.1c2.4,0.1,3.8,0.5,4.7,0.9c1.2,0.5,2,1,2.9,1.9c0.9,0.9,1.4,1.7,1.9,2.9
				c0.3,0.9,0.8,2.2,0.9,4.7c0.1,2.6,0.1,3.4,0.1,10.1c0,6.7,0,7.5-0.1,10.1c-0.1,2.4-0.5,3.8-0.9,4.7c-0.5,1.2-1,2-1.9,2.9
				c-0.9,0.9-1.7,1.4-2.9,1.9c-0.9,0.3-2.2,0.8-4.7,0.9c-2.6,0.1-3.4,0.1-10.1,0.1C159,57.1,158.2,57,155.5,56.9 M155.3,11.6
				c-2.7,0.1-4.5,0.5-6.1,1.2c-1.6,0.6-3,1.5-4.4,2.9c-1.4,1.4-2.3,2.8-2.9,4.4c-0.6,1.6-1,3.4-1.2,6.1c-0.1,2.7-0.2,3.5-0.2,10.3
				s0,7.7,0.2,10.3c0.1,2.7,0.5,4.5,1.2,6.1c0.6,1.6,1.5,3,2.9,4.4c1.4,1.4,2.8,2.3,4.4,2.9c1.6,0.6,3.4,1,6.1,1.2
				c2.7,0.1,3.5,0.2,10.3,0.2c6.8,0,7.7,0,10.3-0.2c2.7-0.1,4.5-0.5,6.1-1.2c1.6-0.6,3-1.5,4.4-2.9c1.4-1.4,2.3-2.8,2.9-4.4
				c0.6-1.6,1-3.4,1.2-6.1c0.1-2.7,0.2-3.5,0.2-10.3s0-7.7-0.2-10.3c-0.1-2.7-0.5-4.5-1.2-6.1c-0.6-1.6-1.5-3-2.9-4.4
				c-1.4-1.4-2.8-2.3-4.4-2.9c-1.6-0.6-3.4-1-6.1-1.2c-2.7-0.1-3.5-0.2-10.3-0.2C158.9,11.4,158,11.5,155.3,11.6"/>
		</defs>
		<use xlink:href="#SVGID_30_"  style="overflow:visible;fill:#E3696A;"/>
		<clipPath id="SVGID_31_">
			<use xlink:href="#SVGID_30_"  style="overflow:visible;"/>
		</clipPath>
		<defs>
			<filter id="Adobe_OpacityMaskFilter_1_" filterUnits="userSpaceOnUse" x="19.8" y="-109.4" width="291.9" height="291.7">
				<feColorMatrix  type="matrix" values="1 0 0 0 0  0 1 0 0 0  0 0 1 0 0  0 0 0 1 0"/>
			</filter>
		</defs>
		<mask maskUnits="userSpaceOnUse" x="19.8" y="-109.4" width="291.9" height="291.7" id="SVGID_32_">
			<g class="st19">
				<rect x="19.8" y="-109.4" class="st20" width="291.9" height="291.7"/>
			</g>
		</mask>
		<g class="st22">
			<g>
				<defs>
					<rect id="SVGID_33_" x="19.8" y="-109.4" width="291.9" height="291.7"/>
				</defs>
				<use xlink:href="#SVGID_33_"  style="overflow:visible;fill:#E3696A;"/>
				<clipPath id="SVGID_34_">
					<use xlink:href="#SVGID_33_"  style="overflow:visible;"/>
				</clipPath>
				<g class="st23">
					<defs>
						<rect id="SVGID_35_" x="19.8" y="-109.4" width="291.9" height="291.7"/>
					</defs>
					<use xlink:href="#SVGID_35_"  style="overflow:visible;fill:#E3696A;"/>
					<clipPath id="SVGID_36_">
						<use xlink:href="#SVGID_35_"  style="overflow:visible;"/>
					</clipPath>
					<rect x="19.8" y="-109.4" class="st24" width="291.7" height="291.7"/>
				</g>
				<g class="st23">
					<defs>
						<rect id="SVGID_37_" x="63.8" y="-61.5" width="247.9" height="218.2"/>
					</defs>
					<use xlink:href="#SVGID_37_"  style="overflow:visible;fill:#E3696A;"/>
					<clipPath id="SVGID_38_">
						<use xlink:href="#SVGID_37_"  style="overflow:visible;"/>
					</clipPath>
					<g class="st25">
						<defs>
							<rect id="SVGID_39_" x="63.8" y="-61.5" width="247.9" height="218.2"/>
						</defs>
						<use xlink:href="#SVGID_39_"  style="overflow:visible;fill:#E3696A;"/>
						<clipPath id="SVGID_40_">
							<use xlink:href="#SVGID_39_"  style="overflow:visible;"/>
						</clipPath>
						<g transform="matrix(1 0 0 1 0 3.814697e-06)" style="clip-path:url(#SVGID_40_);">
							
								<image style="overflow:visible;" width="435" height="383" xlink:href="E233863CDDFA69FE.png"  transform="matrix(0.5698 0 0 0.5698 63.8115 -61.5073)">
							</image>
						</g>
					</g>
				</g>
				<g class="st23">
					<defs>
						<rect id="SVGID_41_" x="38.7" y="-49.5" width="238.8" height="230.2"/>
					</defs>
					<use xlink:href="#SVGID_41_"  style="overflow:visible;fill:#E3696A;"/>
					<clipPath id="SVGID_42_">
						<use xlink:href="#SVGID_41_"  style="overflow:visible;"/>
					</clipPath>
					<g transform="matrix(1 0 0 1 0 3.814697e-06)" style="clip-path:url(#SVGID_42_);">
						
							<image style="overflow:visible;" width="419" height="404" xlink:href="E233863CDDFA69FF.png"  transform="matrix(0.5698 0 0 0.5698 38.7399 -49.5413)">
						</image>
					</g>
				</g>
				<g class="st23">
					<defs>
						<rect id="SVGID_43_" x="67.8" y="-5.7" width="163" height="163"/>
					</defs>
					<use xlink:href="#SVGID_43_"  style="overflow:visible;fill:#E3696A;"/>
					<clipPath id="SVGID_44_">
						<use xlink:href="#SVGID_43_"  style="overflow:visible;"/>
					</clipPath>
					<g class="st26">
						<defs>
							<rect id="SVGID_45_" x="67.8" y="-5.7" width="163" height="163"/>
						</defs>
						<use xlink:href="#SVGID_45_"  style="overflow:visible;fill:#E3696A;"/>
						<clipPath id="SVGID_46_">
							<use xlink:href="#SVGID_45_"  style="overflow:visible;"/>
						</clipPath>
						<g style="clip-path:url(#SVGID_46_);">
							
								<image style="overflow:visible;" width="286" height="286" xlink:href="E233863CDDFA69F4.png"  transform="matrix(0.5698 0 0 0.5698 67.8002 -5.6659)">
							</image>
						</g>
					</g>
				</g>
				<g class="st23">
					<defs>
						<rect id="SVGID_53_" x="19.8" y="-109.4" width="291.9" height="291.7"/>
					</defs>
					<use xlink:href="#SVGID_53_"  style="overflow:visible;fill:#E3696A;"/>
					<clipPath id="SVGID_48_">
						<use xlink:href="#SVGID_53_"  style="overflow:visible;"/>
					</clipPath>
					<g style="opacity:0.45;clip-path:url(#SVGID_48_);">
						<g>
							<defs>
								<rect id="SVGID_55_" x="23.9" y="-76.3" width="232.5" height="119.7"/>
							</defs>
							<use xlink:href="#SVGID_55_"  style="overflow:visible;fill:#E3696A;"/>
							<clipPath id="SVGID_50_">
								<use xlink:href="#SVGID_55_"  style="overflow:visible;"/>
							</clipPath>
							<g style="clip-path:url(#SVGID_50_);">
								<defs>
									<rect id="SVGID_57_" x="23.9" y="-76.3" width="232.5" height="119.7"/>
								</defs>
								<use xlink:href="#SVGID_57_"  style="overflow:visible;fill:#E3696A;"/>
								<clipPath id="SVGID_52_">
									<use xlink:href="#SVGID_57_"  style="overflow:visible;"/>
								</clipPath>
								<g transform="matrix(1 0 0 1 0 0)" style="clip-path:url(#SVGID_52_);">
									
										<image style="overflow:visible;" width="408" height="210" xlink:href="B17266CC15314FEA.png"  transform="matrix(0.5698 0 0 0.5698 23.9249 -76.3223)">
									</image>
								</g>
							</g>
						</g>
					</g>
				</g>
			</g>
		</g>
	</g>
</g>
<g id="Layer_2">
</g>
</svg>
